<?xml version="1.0" encoding="UTF-8" standalone="no"?>
<svg
   width="128"
   height="24"
   viewBox="0 0 128 24"
   fill="none"
   version="1.1"
   id="svg38"
   sodipodi:docname="logo-dark.svg"
   inkscape:version="1.2.2 (732a01da63, 2022-12-09)"
   xmlns:inkscape="http://www.inkscape.org/namespaces/inkscape"
   xmlns:sodipodi="http://sodipodi.sourceforge.net/DTD/sodipodi-0.dtd"
   xmlns="http://www.w3.org/2000/svg"
   xmlns:svg="http://www.w3.org/2000/svg">
  <sodipodi:namedview
     id="namedview40"
     pagecolor="#ffffff"
     bordercolor="#000000"
     borderopacity="0.25"
     inkscape:showpageshadow="2"
     inkscape:pageopacity="0.0"
     inkscape:pagecheckerboard="0"
     inkscape:deskcolor="#d1d1d1"
     showgrid="false"
     inkscape:zoom="4.6953125"
     inkscape:cx="62.189684"
     inkscape:cy="22.575707"
     inkscape:window-width="1920"
     inkscape:window-height="1009"
     inkscape:window-x="-8"
     inkscape:window-y="-8"
     inkscape:window-maximized="1"
     inkscape:current-layer="svg38" />
  <defs
     id="defs36">
    <filter
       id="filter0_i_13568_6445"
       x="6.67578"
       y="0"
       width="13.5078"
       height="26.7227"
       filterUnits="userSpaceOnUse"
       color-interpolation-filters="sRGB">
      <feFlood
         flood-opacity="0"
         result="BackgroundImageFix"
         id="feFlood14" />
      <feBlend
         mode="normal"
         in="SourceGraphic"
         in2="BackgroundImageFix"
         result="shape"
         id="feBlend16" />
      <feColorMatrix
         in="SourceAlpha"
         type="matrix"
         values="0 0 0 0 0 0 0 0 0 0 0 0 0 0 0 0 0 0 127 0"
         result="hardAlpha"
         id="feColorMatrix18" />
      <feOffset
         dx="-4"
         dy="3"
         id="feOffset20" />
      <feGaussianBlur
         stdDeviation="2"
         id="feGaussianBlur22" />
      <feComposite
         in2="hardAlpha"
         operator="arithmetic"
         k2="-1"
         k3="1"
         id="feComposite24" />
      <feColorMatrix
         type="matrix"
         values="0 0 0 0 0.904167 0 0 0 0 0.892865 0 0 0 0 0.892865 0 0 0 0.4 0"
         id="feColorMatrix26" />
      <feBlend
         mode="normal"
         in2="shape"
         result="effect1_innerShadow_13568_6445"
         id="feBlend28" />
    </filter>
    <linearGradient
       id="paint0_linear_13568_6445"
       x1="12.4293"
       y1="10.5"
       x2="21.0008"
       y2="13.0714"
       gradientUnits="userSpaceOnUse">
      <stop
         stop-opacity="0.2"
         id="stop31" />
      <stop
         offset="0.911458"
         stop-color="white"
         stop-opacity="0"
         id="stop33" />
    </linearGradient>
  </defs>
  <text
     xml:space="preserve"
     style="font-style:normal;font-variant:normal;font-weight:normal;font-stretch:normal;font-size:18.6667px;font-family:Roboto;-inkscape-font-specification:Roboto;fill:#ffffff;fill-opacity:1"
     x="30.975054"
     y="17.397636"
     id="text3307"><tspan
       sodipodi:role="line"
       id="tspan3305"
       x="30.975054"
       y="17.397636"
       style="font-weight:bold;font-size:18.6667px;fill:#ffffff;fill-opacity:1">Logistico</tspan></text>
  <path
     style="fill:#ffffff;stroke-width:0.0485233"
     d="M 8.578277,19.866648 C 7.230499,19.430171 6.477219,17.96659 6.92377,16.652041 l 0.118405,-0.348554 -1.07,-0.01544 C 4.958779,16.273517 4.892821,16.266847 4.725378,16.162797 4.369387,15.94143 4.39266,16.368942 4.392862,10.054442 4.393066,3.6873685 4.363242,4.2040085 4.74403,3.9718445 c 0.221407,-0.135 14.967729,-0.154161 15.250818,-0.01976 0.338437,0.160587 0.335008,0.140851 0.361969,2.082318 l 0.02421,1.746826 2.104004,0.01309 c 2.428607,0.01466 2.229765,-0.02657 2.596942,0.537162 1.289919,1.9803375 2.034103,3.1457255 2.071364,3.2437275 0.02526,0.06649 0.04515,1.009918 0.04515,2.142338 0,2.724418 0.107712,2.548963 -1.577012,2.567312 -0.587131,0.0065 -1.064612,0.01728 -1.061065,0.02421 0.112031,0.220019 0.222845,0.764444 0.22473,1.104399 0.01047,1.93016 -2.009171,3.166758 -3.74088,2.290244 -1.094139,-0.553823 -1.653615,-1.972577 -1.233196,-3.12726 l 0.101561,-0.279018 h -4.117123 -4.117129 l 0.101588,0.279018 c 0.06833,0.187679 0.108497,0.438009 0.122711,0.764824 0.07698,1.770423 -1.636723,3.072408 -3.32453,2.52581 z m 1.282439,-1.402565 c 1.071134,-0.553901 0.70314,-2.167088 -0.494352,-2.167088 -1.223418,0 -1.589056,1.633722 -0.485286,2.168331 0.279886,0.135564 0.716155,0.135014 0.979638,-0.0012 z m 12.740406,0.04424 c 1.164511,-0.415577 0.934062,-2.13319 -0.295535,-2.202673 -0.722877,-0.04083 -1.27098,0.509781 -1.20723,1.212792 0.06897,0.760452 0.798708,1.24114 1.502765,0.989881 z M 18.949645,10.061729 V 5.2821895 H 12.37475 5.799853 v 4.7795395 4.779539 h 6.574897 6.574895 z M 8.2988,13.44047 C 7.721494,13.17361 7.713276,12.440694 8.28426,12.143615 c 0.23391,-0.121716 7.98815,-0.09921 8.22941,0.02382 0.494417,0.25224 0.514664,0.884668 0.03966,1.23936 -0.199994,0.149344 -7.936055,0.18086 -8.254551,0.03363 z m 17.492625,7.96e-4 V 12.041308 L 25.276984,11.24561 C 24.994052,10.807967 24.58464,10.17287 24.367173,9.8342764 l -0.395368,-0.615636 -1.807501,-0.0026 -1.807487,-0.0026 v 2.8143436 2.814356 h 2.717297 2.717311 v -1.39999 z"
     id="path685" />
</svg>
